<svg id="Layer_1" data-name="Layer 1" xmlns="http://www.w3.org/2000/svg" viewBox="0 0 322.65 514.08"><defs><style>.cls-1{fill:#f8f7f7;}</style></defs><path class="cls-1" d="M118.56,215c-5.73-2.53-13.49.38-14.89-8.35-1.21-7.52,5-8.14,9.77-10.27-1.17-4.68-2.88-9-3.16-13.48-.18-2.81,1-7.24,2.94-8.25,2.38-1.22,6.78-.54,9.29,1,3.79,2.31,6.7,6.06,10.76,9.92-.38-5.79-.88-11-1-16.26s-1.08-11.87,5.31-13.47c6.05-1.51,9.62,4.23,11.53,9,3.24,8,5.28,16.47,7.62,24.11,2.92-2.15,6.36-5.24,10.31-7.42,3.45-1.9,6.85-.47,6.95,3.68.16,6.31.58,13-1.24,18.91-6.05,19.56-5.59,38.86-.31,58.38,7.95,29.45,15.67,59,23.62,88.42,1.36,5,3.36,9.88,5.43,15.86,6.83-9.27,15.39-16.06,12.4-28.54-.72-3,1-7.64,3.23-10.07,16.37-18,32.81-36,49.94-53.23,10.56-10.66,24.33-14.22,39.25-13.43,9.76.51,9.9.19,9.9-9.73,0-8-2.46-15.11-8.42-20.35-2.74-2.41-6.86-4.79-10.24-4.63-18.92.86-34.28-7-48.52-18.24-1.45-1.13-2.94-2.2-4.46-3.23-.3-.21-.83-.07-2.16-.15a174.77,174.77,0,0,1-9.23,73.61l18.28-7.9c.37.65.75,1.29,1.12,1.93-2,1.44-3.88,3-6,4.27-6,3.47-12,6.88-18,10.09-1.48.78-3.42.7-5.14,1-.24-1.91-1.09-4-.63-5.72,3.1-11.52,7.57-22.78,9.48-34.47a300.18,300.18,0,0,0,3.5-43.73c.07-4.69-3.13-10.15-6.32-14-9.73-11.89-13.72-25.68-12.9-40.38.36-6.54,3.94-13.62,8-19,3.56-4.77,5.85-8.66,4.85-14.74-.61-3.7.11-7.81,1.05-11.53,6-23.74,14.35-46.57,28.47-66.76a39.22,39.22,0,0,1,14.2-12.44c13.16-6.4,27.36,3.46,26,18.55-2-2.88-3.46-5-5-7.11-5.46-7.47-13.54-9-21-3.66a30.9,30.9,0,0,0-7.86,7.6C250.59,62.56,241.63,86.77,236,112.31c-.44,2-.24,4.08-.39,7.07,12.07-7.21,16.85-18.57,20.93-28.34h25.17c-2.34,4.12-4.72,9.48-8.18,14-2.74,3.58-6.54,3.07-8.84-1.15-1-1.88-1.29-4.17-2.15-7.16a44,44,0,0,0-2.91,5,53.76,53.76,0,0,1-19,24c-20.11,14.12-23.19,27.76-9.8,52,11.17,20.2,28.89,35.68,52.84,39.94,25.61,4.55,56.76.33,73.61-29.17,7.26-12.71,13.28-26.12,19.86-39.21q3-6,6.05-12l3,.47c0,2.63.88,5.68-.14,7.83-7.83,16.54-14.71,33.75-24.47,49.1-11.72,18.45-18.38,37.79-19.47,59.38-.14,2.78-1.06,5.53-1.94,9.85-7-8-5.85-15.77-4.58-23.22s3.52-14.66,5.66-23.24l-29.09,8.7c2.33,3.54,4.72,6.58,6.49,10,6,11.45,5.13,22.35-2.48,33-5.19,7.26-10.5,14.64-14.21,22.68-2.95,6.39-3.56,13.87-5.59,22.43,14.21-2.36,20.95-11.54,27.52-19.75s11.32-18.28,18.16-27.45c-1.61,6.13-2.24,12.76-5,18.29-7.07,14-18.07,24.85-31,33.61-8,5.41-14.22,1.87-14.74-8-.58-10.84,3.59-20.19,9.29-29,2.93-4.55,5.93-9.05,9.4-14.34-11.91-1.71-22.41-.8-31,6.18a425,425,0,0,0-32.15,29c-8.58,8.6-16.32,18.1-23.87,27.64a16.13,16.13,0,0,0-3.28,10.55c2.39,23.05,5.35,46.05,8.35,70.93,2.5-4.11,4.23-6.85,5.86-9.66,4.49-7.74,8.34-16,13.58-23.16,5.81-8,5.93-16.25,4.57-25.32-.71-4.69-.13-9.57-.13-15.78,8,8.1,27.74,163.06,22.37,174.79-1.55-4.62-3.21-7.79-3.64-11.11-5.18-40.08-10.18-80.19-15.25-120.28a12.36,12.36,0,0,0-.79-2.18c-10.49,13.14-14,30.66-27.51,41.07l-2.91-.34-4.58-22.82c-2,2.25-4.16,4.67-6.32,7.06-11.56,12.77-24,11.65-32-3.56-15-28.73-24.13-59.51-29.22-91.41-3.39-21.29-5.72-42.76-8.37-64.16-1.14-9.21-4.43-12.55-13.65-12.94-3.44-.15-6.91.11-10.31-.31-8.32-1-9.93-4.73-5.19-11.48C115.76,218.61,117,217,118.56,215Zm85.61,158.08c-8.37-3.77-11.28-10.68-13.3-18.16-5.55-20.6-11.12-41.19-16.54-61.82-2.91-11.1-5-22.42-8.37-33.37-6.5-21.33-.74-41.84,3.06-62.55a108.71,108.71,0,0,0,.92-11l-2.36-.67-12.42,21.95c-9-15.07-4.58-32.93-15.35-45.1l-2,.41q1.73,16.56,3.47,33.12l-3,1.68-21-18.47c-5.54,11.55,6.69,11.68,10.3,18.39L109.31,205l.17,2c4.43.51,8.88.92,13.29,1.55,6.57.94,7.49,3.32,3.28,8.52-2.1,2.59-4.48,4.94-7.8,8.57,4.89,0,8.26-.2,11.6,0,12.21.89,17.74,5.95,19.72,17.89.41,2.49.72,5,.93,7.51,2.87,34.16,7.41,68.08,18.08,100.76,5.24,16.07,12.24,31.58,18.84,47.18,2,4.84,5.86,8.31,11.92,7.37,5.38-.84,20.61-15.71,20.4-21-.36-9.16-1.75-18.27-2.88-29.15Z" transform="translate(-103.52 -3.92)"/><path class="cls-1" d="M395.44,413.11c-4.75,3-9.76,5.76-14.12,9.29-1.46,1.18-1.7,4.43-1.72,6.74-.16,23.61,0,47.23-.33,70.83,0,3.9-1.72,7.77-2.64,11.65l-3.3-.47c.75-28.14,1.5-56.28,2.29-86.16-13.95,8.41-26.37,15.88-40.46,24.36,4.21-18.83,8.84-35.38,11.41-52.25S349.68,363,352,345.77a35,35,0,0,1,3.53,21c-2.13,17.3-4.74,34.54-7.29,51.79-.79,5.41-2,10.76-3.18,17,2.18-1,3.74-1.6,5.17-2.41,16-9,31.9-18.23,48-27,5.47-3,7.75-6.58,7.57-13.07C405,363.37,404,333.77,392,305.9a145.1,145.1,0,0,0-7.34-14.78c-8.22-14.34-18.78-24.68-37.55-19.94-.13-.8-.25-1.6-.37-2.4,3.5-1.26,7-3.46,10.5-3.58,10.13-.32,17.91,5,24.48,12.19,4.95,5.42,9.72,11,15,17a16.19,16.19,0,0,0,1.84-2.95c13.07-39.56,20.23-80.18,19.06-121.85-.76-26.83-3.61-53.6-5.53-80.4-.54-7.56-.89-15.14-1.71-22.67-2-18.54-11.76-31.86-29-38.71-18-7.15-36.65-10.48-55.87-4.87-5.13,1.5-10,3.09-12.78-3.42-2.31-5.43.73-12.13,7.47-15.58-.95,5.07-1.8,9.64-2.86,15.33,4.58-1.07,8.46-2.09,12.39-2.88,21.93-4.43,43-2.42,62.51,9.18,14.37,8.56,23.24,20.75,25.21,38.05,4.26,37.18,10,74.19,8.39,111.83-1.76,39.89-9,78.85-19.43,117.25-1,3.75-5,6.7-7.41,9.83,3.12,14.68,7.5,30.14,9.48,45.91,2.07,16.58,2,33.44,2.44,50.19a10.06,10.06,0,0,1-3.83,7.26c-4.84,3.38-6.59,7.67-7.15,13.32q-4.55,45.18-9.63,90.32c-.33,2.9-1.94,5.66-3,8.49l-2.4-.4c.24-3.87.26-7.76.75-11.59q5.86-46,11.89-92Z" transform="translate(-103.52 -3.92)"/><path class="cls-1" d="M382.52,132.08c3.52-4,6.43-7.19,9.12-10.51,2.86-3.52,5.1-7.38,1.91-11.82-3.35-4.68-7.75-2.7-11.87-1.35a62.94,62.94,0,0,0-6.16,2.89c.19-1.65.05-2.57.41-3.19,2.07-3.54,6.42-7.27,6-10.44-1.19-9.46-2.79-19.79-11-25.95-5.61-4.22-12.8-6.69-19.63-8.87-8-2.57-16.6-3.54-24.64-6.11-3.8-1.22-6.92-4.56-9.61-8.29,13.64,7.38,28.78,7.06,43.05,10.29,15.28,3.46,22.78,14.61,26.08,28.91C387.94,95,389.41,102,397.59,105a4.93,4.93,0,0,1,1.94,1.91c4.67,6.75.49,12.29-2.77,17.7C393.92,129.31,391.34,135.15,382.52,132.08Z" transform="translate(-103.52 -3.92)"/><path class="cls-1" d="M311.33,157.89c-1,3.78-1.35,7.9-3.14,11.25a80.87,80.87,0,0,1-10,14.74c-10.25,11.91-25.9,9.35-31.92-5.22a80.35,80.35,0,0,1-4.17-15.88c-.36-1.95.89-4.19,1.4-6.3l1.8.14c1.28,5,2.43,10,3.88,14.89,1.81,6.15,4.61,11.64,11.79,12.86,7.41,1.25,12.17-2.73,15.82-8.54,4-6.3,7.86-12.64,11.78-19Z" transform="translate(-103.52 -3.92)"/><path class="cls-1" d="M320.33,70.67c12.36,1.62,24.77,3,37.08,4.94,7.61,1.2,11.28,5.85,11.88,13.48-.41,0-1,.29-1.2.1-11-9-24.86-7.69-37.64-10.4-4.1-.87-7.7-4.11-11.53-6.26Z" transform="translate(-103.52 -3.92)"/><path class="cls-1" d="M288.5,133c4.75-1.83,6.41-.16,5.1,3.69-1.67,4.9-6.14,5.76-10.15,4.32-1.66-.6-3.48-5-2.86-7,3.69-11.48,8.06-22.73,12.28-34,.28-.75,1.14-1.3,2.27-2.53C297.76,110.35,293,121.11,288.5,133Z" transform="translate(-103.52 -3.92)"/><path class="cls-1" d="M320,95.46H352.6c-.4,2.11-.32,3.14-.67,3.33-6.75,3.51-13.4,7.33-20.47,10-1.5.58-5-2.53-6.8-4.61S321.83,99.08,320,95.46Z" transform="translate(-103.52 -3.92)"/><path class="cls-1" d="M300.74,5.14,313.59,25l-6.45,2.34v8.82C301,33.36,295.61,13.89,300.74,5.14Z" transform="translate(-103.52 -3.92)"/><path class="cls-1" d="M290.42,72.53c-1.84,1.64-3.05,3.59-4.67,4-12.55,3.4-25.18,6.5-37.19,9.55C252.72,77.25,275.84,69,290.42,72.53Z" transform="translate(-103.52 -3.92)"/><path class="cls-1" d="M292.57,48.87C289,61,280.07,67.19,267.72,66Z" transform="translate(-103.52 -3.92)"/></svg>